<svg width="34" height="34" viewBox="0 0 34 34" fill="none" xmlns="http://www.w3.org/2000/svg">
<path d="M31.4 17H33M27.4 6.6L29 5M17 2.6V1M6.6 6.6L5 5M2.6 17H1M13.8 33H20.2M25 17C24.9996 15.5578 24.6093 14.1425 23.8705 12.9039C23.1316 11.6653 22.0717 10.6495 20.8028 9.96392C19.534 9.27835 18.1034 8.94855 16.6624 9.0094C15.2215 9.07026 13.8238 9.51951 12.6173 10.3096C11.4107 11.0997 10.4402 12.2013 9.80844 13.4978C9.17666 14.7943 8.9071 16.2374 9.0283 17.6745C9.14949 19.1117 9.65693 20.4893 10.4969 21.6617C11.3369 22.834 12.4782 23.7575 13.8 24.3344V28.2H20.2V24.3344C21.627 23.7116 22.8413 22.6859 23.6939 21.3831C24.5465 20.0803 25.0004 18.557 25 17Z" stroke="white" stroke-width="2" stroke-linecap="round" stroke-linejoin="round"/>
</svg>
