<svg width="29" height="29" viewBox="0 0 29 29" fill="none" xmlns="http://www.w3.org/2000/svg">
<path d="M26.2813 29H2.71875C1.21438 29 0 27.7934 0 26.2986V4.68764C0 3.19288 1.21438 1.98627 2.71875 1.98627H26.2813C27.7856 1.98627 29 3.19288 29 4.68764V26.2986C29 27.7934 27.7856 29 26.2813 29ZM2.71875 3.78718C2.21125 3.78718 1.8125 4.18338 1.8125 4.68764V26.2986C1.8125 26.8029 2.21125 27.1991 2.71875 27.1991H26.2813C26.7888 27.1991 27.1875 26.8029 27.1875 26.2986V4.68764C27.1875 4.18338 26.7888 3.78718 26.2813 3.78718H2.71875Z" fill="white"/>
<path d="M8.15625 7.15068C7.64875 7.15068 7.25 6.7574 7.25 6.25685V0.893836C7.25 0.393288 7.64875 0 8.15625 0C8.66375 0 9.0625 0.393288 9.0625 0.893836V6.25685C9.0625 6.7574 8.66375 7.15068 8.15625 7.15068ZM20.8438 7.15068C20.3363 7.15068 19.9375 6.7574 19.9375 6.25685V0.893836C19.9375 0.393288 20.3363 0 20.8438 0C21.3513 0 21.75 0.393288 21.75 0.893836V6.25685C21.75 6.7574 21.3513 7.15068 20.8438 7.15068ZM28.0938 10.726H0.90625C0.39875 10.726 0 10.3327 0 9.83219C0 9.33164 0.39875 8.93836 0.90625 8.93836H28.0938C28.6013 8.93836 29 9.33164 29 9.83219C29 10.3327 28.6013 10.726 28.0938 10.726Z" fill="white"/>
</svg>
