<svg width="31" height="31" viewBox="0 0 31 31" fill="none" xmlns="http://www.w3.org/2000/svg">
<path d="M13.2757 8.01471H22.0441M22.0441 15.0294H13.2757M22.0441 22.0441H13.2757M4.50735 29.0588H25.5515C26.4817 29.0588 27.3738 28.6893 28.0315 28.0315C28.6893 27.3738 29.0588 26.4817 29.0588 25.5515V4.50735C29.0588 3.57714 28.6893 2.68504 28.0315 2.02728C27.3738 1.36952 26.4817 1 25.5515 1H4.50735C3.57714 1 2.68504 1.36952 2.02728 2.02728C1.36952 2.68504 1 3.57714 1 4.50735V25.5515C1 26.4817 1.36952 27.3738 2.02728 28.0315C2.68504 28.6893 3.57714 29.0588 4.50735 29.0588Z" stroke="white" stroke-width="2" stroke-linecap="round" stroke-linejoin="round"/>
</svg>
