<svg width="19" height="19" viewBox="0 0 19 19" fill="none" xmlns="http://www.w3.org/2000/svg">
<path d="M17 18.02C16.8688 18.0216 16.7388 17.9957 16.6183 17.9441C16.4977 17.8924 16.3893 17.8161 16.3 17.72L0.3 1.72C-0.1 1.32 -0.1 0.7 0.3 0.3C0.7 -0.1 1.32 -0.1 1.72 0.3L17.7 16.32C18.1 16.72 18.1 17.34 17.7 17.74C17.5 17.94 17.24 18.04 17 18.04V18.02Z" fill="#74B945"/>
<path d="M1 18C0.868848 18.0016 0.738814 17.9757 0.618257 17.9241C0.497701 17.8724 0.389292 17.7961 0.3 17.7C-0.1 17.3 -0.1 16.68 0.3 16.28L16.3 0.3C16.7 -0.1 17.32 -0.1 17.72 0.3C18.12 0.7 18.12 1.32 17.72 1.72L1.7 17.7C1.5 17.9 1.24 18 1 18Z" fill="#74B945"/>
</svg>
